<svg width="32" height="32" viewBox="0 0 32 32" fill="none" xmlns="http://www.w3.org/2000/svg">
<rect width="32" height="32" fill="#17181F"/>
<path d="M9 12.7273V4H10.0057V7.22159H10.0909C10.1648 7.10795 10.267 6.96307 10.3977 6.78693C10.5312 6.60795 10.7216 6.44886 10.9688 6.30966C11.2188 6.16761 11.5568 6.09659 11.983 6.09659C12.5341 6.09659 13.0199 6.23438 13.4403 6.50994C13.8608 6.78551 14.1889 7.17614 14.4247 7.68182C14.6605 8.1875 14.7784 8.78409 14.7784 9.47159C14.7784 10.1648 14.6605 10.7656 14.4247 11.2741C14.1889 11.7798 13.8622 12.1719 13.4446 12.4503C13.027 12.7259 12.5455 12.8636 12 12.8636C11.5795 12.8636 11.2429 12.794 10.9901 12.6548C10.7372 12.5128 10.5426 12.3523 10.4062 12.1733C10.2699 11.9915 10.1648 11.8409 10.0909 11.7216H9.97159V12.7273H9ZM9.98864 9.45455C9.98864 9.94886 10.0611 10.3849 10.206 10.7628C10.3509 11.1378 10.5625 11.4318 10.8409 11.6449C11.1193 11.8551 11.4602 11.9602 11.8636 11.9602C12.2841 11.9602 12.6349 11.8494 12.9162 11.6278C13.2003 11.4034 13.4134 11.1023 13.5554 10.7244C13.7003 10.3438 13.7727 9.92046 13.7727 9.45455C13.7727 8.99432 13.7017 8.57955 13.5597 8.21023C13.4205 7.83807 13.2088 7.54403 12.9247 7.32812C12.6435 7.10938 12.2898 7 11.8636 7C11.4545 7 11.1108 7.10369 10.8324 7.31108C10.554 7.51563 10.3438 7.80256 10.2017 8.17188C10.0597 8.53835 9.98864 8.96591 9.98864 9.45455Z" fill="white"/>
<path d="M19.0611 12.8636C18.4304 12.8636 17.8864 12.7244 17.429 12.446C16.9744 12.1648 16.6236 11.7727 16.3764 11.2699C16.1321 10.7642 16.0099 10.1761 16.0099 9.50568C16.0099 8.83523 16.1321 8.24432 16.3764 7.73295C16.6236 7.21875 16.9673 6.81818 17.4077 6.53125C17.8509 6.24148 18.3679 6.09659 18.9588 6.09659C19.2997 6.09659 19.6364 6.15341 19.9688 6.26705C20.3011 6.38068 20.6037 6.56534 20.8764 6.82102C21.1491 7.07386 21.3665 7.40909 21.5284 7.8267C21.6903 8.24432 21.7713 8.75852 21.7713 9.36932V9.79545H16.7259V8.92614H20.7486C20.7486 8.55682 20.6747 8.22727 20.527 7.9375C20.3821 7.64773 20.1747 7.41903 19.9048 7.25142C19.6378 7.08381 19.3224 7 18.9588 7C18.5582 7 18.2116 7.09943 17.919 7.2983C17.6293 7.49432 17.4062 7.75 17.25 8.06534C17.0938 8.38068 17.0156 8.71875 17.0156 9.07955V9.65909C17.0156 10.1534 17.1009 10.5724 17.2713 10.9162C17.4446 11.2571 17.6847 11.517 17.9915 11.696C18.2983 11.8722 18.6548 11.9602 19.0611 11.9602C19.3253 11.9602 19.5639 11.9233 19.777 11.8494C19.9929 11.7727 20.179 11.6591 20.3352 11.5085C20.4915 11.3551 20.6122 11.1648 20.6974 10.9375L21.669 11.2102C21.5668 11.5398 21.3949 11.8295 21.1534 12.0795C20.9119 12.3267 20.6136 12.5199 20.2585 12.6591C19.9034 12.7955 19.5043 12.8636 19.0611 12.8636Z" fill="white"/>
<path d="M5 27.7273V14.6364H14.2045V17.5H8.55398V19.75H13.642V22.6137H8.55398V27.7273H5Z" fill="#5FCC8A"/>
<path d="M15.5629 27.7273V17.9091H19.0913V27.7273H15.5629ZM17.3271 16.8864C16.8498 16.8864 16.4407 16.7287 16.0998 16.4134C15.7589 16.098 15.5884 15.7188 15.5884 15.2756C15.5884 14.8324 15.7589 14.4531 16.0998 14.1378C16.4407 13.8225 16.8498 13.6648 17.3271 13.6648C17.8086 13.6648 18.2177 13.8225 18.5543 14.1378C18.8952 14.4531 19.0657 14.8324 19.0657 15.2756C19.0657 15.7188 18.8952 16.098 18.5543 16.4134C18.2177 16.7287 17.8086 16.8864 17.3271 16.8864Z" fill="#5FCC8A"/>
<path d="M26.7441 17.9091V20.4659H20.2754V17.9091H26.7441ZM21.5282 15.5568H25.0566V24.5696C25.0566 24.706 25.0801 24.821 25.127 24.9148C25.1738 25.0043 25.2463 25.0725 25.3443 25.1193C25.4423 25.162 25.568 25.1833 25.7214 25.1833C25.8279 25.1833 25.9515 25.1705 26.0922 25.1449C26.237 25.1193 26.3436 25.098 26.4118 25.081L26.9231 27.5611C26.7654 27.608 26.5396 27.6655 26.2456 27.7337C25.9558 27.8019 25.6106 27.8466 25.2101 27.8679C24.4004 27.9105 23.7207 27.8274 23.171 27.6186C22.6213 27.4056 22.2079 27.071 21.9309 26.6151C21.6539 26.1591 21.5197 25.5881 21.5282 24.902V15.5568Z" fill="#5FCC8A"/>
</svg>
